<svg width="1001" height="1001" viewBox="0 0 1001 1001" fill="none" xmlns="http://www.w3.org/2000/svg">
<g clip-path="url(#clip0_315_607)">
<path d="M1000.93 0.649323H0.925293V1000.65H1000.93V0.649323Z" fill="white"/>
<path d="M244.825 635.349V666.249H182.925" stroke="#E5E5E5" stroke-width="6" stroke-miterlimit="10" stroke-linecap="round" stroke-linejoin="round"/>
<path d="M306.625 666.249H244.825V635.349" stroke="#E5E5E5" stroke-width="6" stroke-miterlimit="10" stroke-linecap="round" stroke-linejoin="round"/>
<path d="M275.725 666.249H213.825V697.149H275.725V666.249Z" stroke="#E5E5E5" stroke-width="6" stroke-miterlimit="10" stroke-linecap="round" stroke-linejoin="round"/>
<path d="M262.325 728.149H244.825V697.149H306.625" stroke="#E5E5E5" stroke-width="6" stroke-miterlimit="10" stroke-linecap="round" stroke-linejoin="round"/>
<path d="M182.925 697.149H244.825V728.149H194.625" stroke="#E5E5E5" stroke-width="6" stroke-miterlimit="10" stroke-linecap="round" stroke-linejoin="round"/>
<path d="M161.825 666.249H213.825V697.149H182.925" stroke="#E5E5E5" stroke-width="6" stroke-miterlimit="10" stroke-linecap="round" stroke-linejoin="round"/>
<path d="M320.325 697.149H275.725V666.249H297.125" stroke="#E5E5E5" stroke-width="6" stroke-miterlimit="10" stroke-linecap="round" stroke-linejoin="round"/>
<path d="M818.525 442.049V472.949H880.425" stroke="#E5E5E5" stroke-width="6" stroke-miterlimit="10" stroke-linecap="round" stroke-linejoin="round"/>
<path d="M756.725 472.949H818.525V442.049" stroke="#E5E5E5" stroke-width="6" stroke-miterlimit="10" stroke-linecap="round" stroke-linejoin="round"/>
<path d="M787.611 503.978H849.511V473.078H787.611V503.978Z" stroke="#E5E5E5" stroke-width="6" stroke-miterlimit="10" stroke-linecap="round" stroke-linejoin="round"/>
<path d="M801.025 534.849H818.525V503.949H756.725" stroke="#E5E5E5" stroke-width="6" stroke-miterlimit="10" stroke-linecap="round" stroke-linejoin="round"/>
<path d="M880.425 503.949H818.525V534.849H868.725" stroke="#E5E5E5" stroke-width="6" stroke-miterlimit="10" stroke-linecap="round" stroke-linejoin="round"/>
<path d="M901.525 472.949H849.525V503.949H880.425" stroke="#E5E5E5" stroke-width="6" stroke-miterlimit="10" stroke-linecap="round" stroke-linejoin="round"/>
<path d="M743.025 503.949H787.625V472.949H766.225" stroke="#E5E5E5" stroke-width="6" stroke-miterlimit="10" stroke-linecap="round" stroke-linejoin="round"/>
<path d="M587.925 308.549C618.853 308.549 643.925 283.477 643.925 252.549C643.925 221.621 618.853 196.549 587.925 196.549C556.997 196.549 531.925 221.621 531.925 252.549C531.925 283.477 556.997 308.549 587.925 308.549Z" stroke="#E5E5E5" stroke-width="6" stroke-miterlimit="10" stroke-linecap="round" stroke-linejoin="round"/>
<path d="M587.925 202.249V207.649" stroke="#E5E5E5" stroke-width="6" stroke-miterlimit="10" stroke-linecap="round" stroke-linejoin="round"/>
<path d="M587.925 297.349V302.749" stroke="#E5E5E5" stroke-width="6" stroke-miterlimit="10" stroke-linecap="round" stroke-linejoin="round"/>
<path d="M638.225 252.549H632.825" stroke="#E5E5E5" stroke-width="6" stroke-miterlimit="10" stroke-linecap="round" stroke-linejoin="round"/>
<path d="M543.125 252.549H537.625" stroke="#E5E5E5" stroke-width="6" stroke-miterlimit="10" stroke-linecap="round" stroke-linejoin="round"/>
<path d="M587.925 257.049C590.41 257.049 592.425 255.034 592.425 252.549C592.425 250.064 590.41 248.049 587.925 248.049C585.44 248.049 583.425 250.064 583.425 252.549C583.425 255.034 585.44 257.049 587.925 257.049Z" fill="#E5E5E5"/>
<path d="M587.925 252.549L612.125 222.649" stroke="#E5E5E5" stroke-width="4" stroke-miterlimit="10" stroke-linecap="round" stroke-linejoin="round"/>
<path d="M572.725 237.549L587.925 252.549" stroke="#E5E5E5" stroke-width="6" stroke-miterlimit="10" stroke-linecap="round" stroke-linejoin="round"/>
<path d="M260.025 253.549H136.725V378.849H260.025V253.549Z" stroke="#E5E5E5" stroke-width="8" stroke-miterlimit="10" stroke-linecap="round" stroke-linejoin="round"/>
<path d="M242.819 359.565V273.065H153.919V359.565H242.819Z" stroke="#E5E5E5" stroke-width="4" stroke-miterlimit="10" stroke-linecap="round" stroke-linejoin="round"/>
<path d="M398.725 213.649H290.125V291.449H398.725V213.649Z" stroke="#E5E5E5" stroke-width="8" stroke-miterlimit="10" stroke-linecap="round" stroke-linejoin="round"/>
<path d="M382.816 275.46V229.56H306.116V275.46H382.816Z" stroke="#E5E5E5" stroke-width="4" stroke-miterlimit="10" stroke-linecap="round" stroke-linejoin="round"/>
<path d="M353.772 413.368V340.768H306.072V413.368H353.772Z" stroke="#E5E5E5" stroke-width="4" stroke-miterlimit="10" stroke-linecap="round" stroke-linejoin="round"/>
<path d="M369.725 324.849H290.125V429.349H369.725V324.849Z" stroke="#E5E5E5" stroke-width="8" stroke-miterlimit="10" stroke-linecap="round" stroke-linejoin="round"/>
<path d="M834.725 784.849H842.625" stroke="#A83727" stroke-width="6" stroke-miterlimit="10" stroke-linecap="round" stroke-linejoin="round"/>
<path d="M803.225 784.849H821.725" stroke="#A83727" stroke-width="6" stroke-miterlimit="10" stroke-linecap="round" stroke-linejoin="round"/>
<path d="M473.925 784.849H789.225" stroke="#A83727" stroke-width="6" stroke-miterlimit="10" stroke-linecap="round" stroke-linejoin="round"/>
<path d="M200.925 784.849H452.925" stroke="#A83727" stroke-width="6" stroke-miterlimit="10" stroke-linecap="round" stroke-linejoin="round"/>
<path d="M157.425 784.849H179.425" stroke="#A83727" stroke-width="6" stroke-miterlimit="10" stroke-linecap="round" stroke-linejoin="round"/>
<path d="M127.425 784.849H139.425" stroke="#A83727" stroke-width="6" stroke-miterlimit="10" stroke-linecap="round" stroke-linejoin="round"/>
<path d="M331.825 675.049C313.625 663.449 281.525 643.049 267.625 600.649C257.925 571.049 257.725 533.849 268.125 530.349C280.225 526.349 301.325 569.149 309.025 565.449C315.125 562.549 302.425 536.049 300.725 491.149C299.525 460.549 303.925 434.249 317.725 410.849C324.025 400.149 328.625 392.249 333.725 392.849C354.625 395.249 348.725 536.849 371.025 539.549C381.525 540.849 389.925 510.349 401.725 512.849C411.725 514.949 418.425 539.649 420.225 555.649C420.325 556.449 420.425 557.049 420.425 557.549C425.625 609.449 395.325 646.849 385.125 659.549C369.825 678.349 359.525 682.149 351.525 682.249C343.125 682.149 336.725 678.249 331.825 675.049Z" fill="#6DCCA3"/>
<path d="M326.425 477.649C329.925 514.649 350.925 570.949 354.025 618.649C356.025 649.749 354.125 677.149 351.025 699.649" stroke="#465172" stroke-width="6" stroke-miterlimit="10" stroke-linecap="round" stroke-linejoin="round"/>
<path d="M422.925 784.849H267.925C252.325 757.249 252.925 723.349 269.425 696.349L292.225 659.049H398.525L420.625 693.549C437.025 719.049 438.925 751.349 425.825 778.649L422.925 784.849Z" fill="#2359B2"/>
<path d="M375.925 562.549C375.925 562.549 375.525 579.549 352.125 601.649" stroke="#465172" stroke-width="6" stroke-miterlimit="10" stroke-linecap="round" stroke-linejoin="round"/>
<path d="M302.025 601.649C302.025 601.649 317.725 633.649 354.825 633.649" stroke="#465172" stroke-width="6" stroke-miterlimit="10" stroke-linecap="round" stroke-linejoin="round"/>
<path opacity="0.67" d="M383.225 685.449C383.225 685.449 406.825 700.849 406.825 737.749" stroke="#1E2A54" stroke-width="6" stroke-miterlimit="10" stroke-linecap="round" stroke-linejoin="round"/>
<path d="M524.525 794.649C524.525 823.849 574.425 847.649 635.925 847.649C684.125 847.649 725.125 833.149 740.625 812.749L624.125 821.149L524.525 794.649Z" fill="#D6D6D6"/>
<path d="M724.625 791.749C721.725 791.149 718.625 791.449 715.925 792.549C698.325 799.449 667.525 804.049 632.525 804.049C577.825 804.049 533.525 792.849 533.525 779.049C533.525 766.849 568.225 756.649 614.125 754.449L617.326 737.749C554.425 741.649 506.625 761.149 506.625 784.549C506.625 810.749 566.625 832.049 640.625 832.049C673.025 832.049 702.725 827.949 725.925 821.149C740.925 816.649 740.025 794.949 724.625 791.749Z" fill="#F78A21"/>
<path opacity="0.26" d="M672.025 801.949L720.025 791.449C720.025 791.449 732.625 792.749 734.925 799.449C738.925 810.849 730.725 817.849 730.725 817.849C730.725 817.849 727.625 791.449 672.025 801.949Z" fill="#9B463D"/>
<path d="M724.625 791.749C721.725 791.149 718.625 791.449 715.925 792.549C698.325 799.449 667.525 804.049 632.525 804.049C577.825 804.049 533.525 792.849 533.525 779.049C533.525 766.849 568.225 756.649 614.125 754.449L617.326 737.749C554.425 741.649 506.625 761.149 506.625 784.549C506.625 810.749 566.625 832.049 640.625 832.049C673.025 832.049 702.725 827.949 725.925 821.149C740.925 816.649 740.025 794.949 724.625 791.749Z" stroke="#A83727" stroke-width="6" stroke-miterlimit="10" stroke-linecap="round" stroke-linejoin="round"/>
<path d="M715.225 440.549C699.225 435.449 681.525 432.549 663.025 432.549C644.625 432.549 627.125 435.349 611.125 440.349C601.425 417.649 588.225 399.149 574.325 387.649C572.125 385.849 568.825 386.449 567.425 388.949C539.725 439.049 527.325 496.349 532.525 558.849C537.325 628.649 564.225 705.349 589.725 784.649H736.525C762.125 705.449 788.725 629.549 793.725 560.649C799.225 497.749 786.625 440.249 758.125 389.649C756.725 387.149 753.425 386.549 751.225 388.349C737.625 399.949 724.725 418.149 715.225 440.549Z" fill="#F78A21"/>
<path opacity="0.26" d="M675.325 534.549C675.325 538.249 669.825 541.249 662.925 541.249C656.125 541.249 650.525 538.249 650.525 534.549L663.025 531.749L675.325 534.549Z" fill="#9B463D"/>
<path opacity="0.26" d="M714.225 783.249C714.225 783.249 714.225 775.349 715.725 768.749C728.925 710.049 720.225 691.949 720.225 691.949L692.425 783.449L714.225 783.249Z" fill="#9B463D"/>
<path opacity="0.26" d="M609.725 783.249C609.725 783.249 609.725 775.349 608.225 768.749C595.025 710.049 603.725 691.949 603.725 691.949L631.525 783.449L609.725 783.249Z" fill="#9B463D"/>
<path d="M715.225 440.549C699.225 435.449 681.525 432.549 663.025 432.549C644.625 432.549 627.125 435.349 611.125 440.349C601.425 417.649 588.225 399.149 574.325 387.649C572.125 385.849 568.825 386.449 567.425 388.949C539.725 439.049 527.325 496.349 532.525 558.849C537.325 628.649 564.225 705.349 589.725 784.649H736.525C762.125 705.449 788.725 629.549 793.725 560.649C799.225 497.749 786.625 440.249 758.125 389.649C756.725 387.149 753.425 386.549 751.225 388.349C737.625 399.949 724.725 418.149 715.225 440.549Z" stroke="#A83727" stroke-width="6" stroke-miterlimit="10" stroke-linecap="round" stroke-linejoin="round"/>
<path d="M621.525 488.449C625.943 488.449 629.525 484.867 629.525 480.449C629.525 476.031 625.943 472.449 621.525 472.449C617.107 472.449 613.525 476.031 613.525 480.449C613.525 484.867 617.107 488.449 621.525 488.449Z" fill="#A83727"/>
<path d="M704.525 488.449C708.943 488.449 712.525 484.867 712.525 480.449C712.525 476.031 708.943 472.449 704.525 472.449C700.107 472.449 696.525 476.031 696.525 480.449C696.525 484.867 700.107 488.449 704.525 488.449Z" fill="#A83727"/>
<path d="M669.725 507.349C665.325 506.949 660.925 506.949 656.525 507.349C654.425 507.549 653.725 509.649 655.325 510.749C656.725 511.649 658.125 512.549 659.525 513.549C661.525 514.949 664.825 514.949 666.825 513.549C668.225 512.549 669.625 511.649 671.025 510.749C672.525 509.649 671.725 507.549 669.725 507.349Z" fill="#A83727"/>
<path d="M720.025 694.849C718.325 724.349 704.625 755.349 695.225 784.849C685.525 784.849 663.025 784.849 663.025 784.849L663.225 701.749" fill="#F78A21"/>
<path d="M605.925 694.849C607.625 724.349 624.325 755.349 633.725 784.849C643.425 784.849 662.925 784.849 662.925 784.849L662.725 701.749" fill="#F78A21"/>
<path d="M681 525.761C679.23 524.661 677.066 524 674.902 524C668.311 524 663 529.394 663 536" stroke="#A83727" stroke-width="6" stroke-miterlimit="10" stroke-linecap="round" stroke-linejoin="round"/>
<path d="M645 525.761C646.77 524.661 648.934 524 651.098 524C657.689 524 663 529.394 663 536" stroke="#A83727" stroke-width="6" stroke-miterlimit="10" stroke-linecap="round" stroke-linejoin="round"/>
<path d="M720.025 694.849C718.325 724.349 701.625 755.349 692.225 784.849C682.525 784.849 663.025 784.849 663.025 784.849L663.225 701.749" stroke="#A83727" stroke-width="6" stroke-miterlimit="10" stroke-linecap="round" stroke-linejoin="round"/>
<path d="M605.925 694.849C607.625 724.349 621.325 755.349 630.725 784.849C640.425 784.849 662.925 784.849 662.925 784.849L662.725 701.749" stroke="#A83727" stroke-width="6" stroke-miterlimit="10" stroke-linecap="round" stroke-linejoin="round"/>
<path opacity="0.26" d="M730.025 452.049C737.425 429.349 748.225 423.549 748.225 423.549C748.225 423.549 756.025 426.449 756.025 457.349" fill="#9B463D"/>
<path opacity="0.26" d="M596.025 452.049C588.625 429.349 577.825 423.549 577.825 423.549C577.825 423.549 570.025 426.449 570.025 457.349" fill="#9B463D"/>
<path d="M645.225 772.849L647.725 784.149" stroke="#A83727" stroke-width="6" stroke-miterlimit="10" stroke-linecap="round" stroke-linejoin="round"/>
<path d="M680.825 772.849L678.325 784.149" stroke="#A83727" stroke-width="6" stroke-miterlimit="10" stroke-linecap="round" stroke-linejoin="round"/>
<g opacity="0.24">
<path opacity="0.24" d="M707.925 529.349C720.025 532.549 732.525 533.149 744.525 531.349" stroke="#A83727" stroke-width="2" stroke-miterlimit="10" stroke-linecap="round" stroke-linejoin="round"/>
<path opacity="0.24" d="M704.525 536.949C715.525 543.949 726.925 548.749 737.925 551.249" stroke="#A83727" stroke-width="2" stroke-miterlimit="10" stroke-linecap="round" stroke-linejoin="round"/>
<path opacity="0.24" d="M707.925 518.549C717.825 517.849 728.025 515.149 737.925 510.449" stroke="#A83727" stroke-width="2" stroke-miterlimit="10" stroke-linecap="round" stroke-linejoin="round"/>
<path opacity="0.24" d="M618.125 529.349C606.025 532.549 593.525 533.149 581.525 531.349" stroke="#A83727" stroke-width="2" stroke-miterlimit="10" stroke-linecap="round" stroke-linejoin="round"/>
<path opacity="0.24" d="M621.525 536.949C610.525 543.949 599.125 548.749 588.125 551.249" stroke="#A83727" stroke-width="2" stroke-miterlimit="10" stroke-linecap="round" stroke-linejoin="round"/>
<path opacity="0.24" d="M618.125 518.549C608.225 517.849 598.025 515.149 588.125 510.449" stroke="#A83727" stroke-width="2" stroke-miterlimit="10" stroke-linecap="round" stroke-linejoin="round"/>
</g>
</g>
<defs>
<clipPath id="clip0_315_607">
<rect width="1000" height="1000" fill="white" transform="translate(0.925293 0.649323)"/>
</clipPath>
</defs>
</svg>
