<svg width="751" height="558" viewBox="0 0 751 558" fill="none" xmlns="http://www.w3.org/2000/svg">
<path d="M490.67 61.0801H29.8105C15.8211 61.0801 4.48047 72.4207 4.48047 86.4101V200.7C4.48047 214.689 15.8211 226.03 29.8105 226.03H490.67C504.66 226.03 516 214.689 516 200.7V86.4101C516 72.4207 504.66 61.0801 490.67 61.0801Z" fill="#1DCDFF"/>
<path d="M516.002 164.32V216.15C516.002 221.61 505.002 226.03 491.512 226.03H29.0017C15.4717 226.03 4.51172 221.61 4.51172 216.15V186.15C35.6917 194.41 71.1917 199.98 107.602 203.44C151.602 207.62 196.952 208.84 242.112 209.02C296.112 209.24 351.012 207.93 401.842 200.6C448.422 193.91 491.612 181.55 516.002 164.32Z" fill="#1AB5E1"/>
<path d="M189.419 61.5C141.229 64.76 74.2992 61.61 32.7092 73.6C12.9992 79.27 8.11922 90.29 4.94922 99.4L4.99922 73.9C4.99922 70.63 5.27922 67.07 10.5092 64.57C16.9792 61.49 28.3492 61.25 38.3592 61.26C87.5092 61.27 141.239 59.11 189.419 61.5Z" fill="#4ED9FF"/>
<path d="M490.19 61.28H29.33C15.3406 61.28 4 72.6207 4 86.61V200.9C4 214.889 15.3406 226.23 29.33 226.23H490.19C504.179 226.23 515.52 214.889 515.52 200.9V86.61C515.52 72.6207 504.179 61.28 490.19 61.28Z" stroke="#314E5D" stroke-width="8" stroke-miterlimit="10"/>
<path d="M721.671 317.08H194.881C180.891 317.08 169.551 328.421 169.551 342.41V456.7C169.551 470.689 180.891 482.03 194.881 482.03H721.671C735.66 482.03 747.001 470.689 747.001 456.7V342.41C747.001 328.421 735.66 317.08 721.671 317.08Z" fill="#1DCDFF"/>
<path d="M747.001 420.32V472.15C747.001 477.61 734.621 482.03 719.351 482.03H197.201C181.931 482.03 169.551 477.61 169.551 472.15V442.15C204.751 450.41 244.831 455.98 285.931 459.44C335.551 463.62 386.791 464.84 437.781 465.02C498.721 465.24 560.721 463.93 618.101 456.6C670.711 449.91 719.471 437.55 747.001 420.32Z" fill="#1AB5E1"/>
<path d="M378.319 317.5C323.919 320.76 248.319 317.61 201.409 329.6C179.139 335.28 173.649 346.3 170.059 355.41L170.129 329.9C170.129 326.63 170.439 323.07 176.349 320.57C183.659 317.49 196.489 317.25 207.789 317.26C263.269 317.27 323.939 315.11 378.319 317.5Z" fill="#4ED9FF"/>
<path d="M721.12 317.28H194.33C180.341 317.28 169 328.621 169 342.61V456.9C169 470.889 180.341 482.23 194.33 482.23H721.12C735.109 482.23 746.45 470.889 746.45 456.9V342.61C746.45 328.621 735.109 317.28 721.12 317.28Z" stroke="#314E5D" stroke-width="8" stroke-miterlimit="10"/>
<path d="M650.19 4.91003H104.11C95.3508 4.91003 88.25 12.0108 88.25 20.77V534.42C88.25 543.179 95.3508 550.28 104.11 550.28H650.19C658.949 550.28 666.05 543.179 666.05 534.42V20.77C666.05 12.0108 658.949 4.91003 650.19 4.91003Z" fill="white"/>
<path d="M668.552 26.8901V107.22H90.7617V26.8901C90.7617 13.5301 97.8617 2.68005 106.622 2.68005H652.692C661.452 2.68005 668.552 13.5301 668.552 26.8901Z" fill="#DCEAEF"/>
<path d="M649.499 4H103.419C94.6594 4 87.5586 11.1008 87.5586 19.86V537.45C87.5586 546.209 94.6594 553.31 103.419 553.31H649.499C658.258 553.31 665.359 546.209 665.359 537.45V19.86C665.359 11.1008 658.258 4 649.499 4Z" stroke="#314E5D" stroke-width="8" stroke-miterlimit="10"/>
<path d="M142 72.2201C148.627 72.2201 154 66.8475 154 60.2201C154 53.5927 148.627 48.2201 142 48.2201C135.373 48.2201 130 53.5927 130 60.2201C130 66.8475 135.373 72.2201 142 72.2201Z" fill="#EEA248"/>
<path d="M181 72.2201C187.627 72.2201 193 66.8475 193 60.2201C193 53.5927 187.627 48.2201 181 48.2201C174.373 48.2201 169 53.5927 169 60.2201C169 66.8475 174.373 72.2201 181 72.2201Z" fill="#EEA248"/>
<path d="M220 72.2201C226.627 72.2201 232 66.8475 232 60.2201C232 53.5927 226.627 48.2201 220 48.2201C213.373 48.2201 208 53.5927 208 60.2201C208 66.8475 213.373 72.2201 220 72.2201Z" fill="#EEA248"/>
<path d="M194.828 224.88C194.828 213.44 198.748 207.02 206.268 207.02C213.788 207.02 217.708 213.44 217.708 224.88C217.708 236.32 213.788 242.79 206.268 242.79C198.748 242.79 194.828 236.37 194.828 224.88ZM212.948 224.88C212.948 214.79 210.498 210.68 206.278 210.68C202.058 210.68 199.608 214.79 199.608 224.88C199.608 234.97 202.118 239.13 206.278 239.13C210.438 239.13 212.948 235 212.948 224.88ZM206.268 221.62C206.921 221.614 207.562 221.803 208.107 222.162C208.653 222.521 209.079 223.035 209.332 223.637C209.585 224.239 209.652 224.903 209.526 225.544C209.4 226.185 209.086 226.774 208.624 227.236C208.162 227.698 207.573 228.012 206.933 228.138C206.292 228.264 205.628 228.196 205.025 227.944C204.423 227.691 203.909 227.265 203.55 226.719C203.191 226.173 203.002 225.533 203.008 224.88C203.005 224.451 203.088 224.026 203.251 223.629C203.414 223.233 203.654 222.872 203.957 222.569C204.26 222.266 204.621 222.026 205.017 221.863C205.414 221.7 205.839 221.617 206.268 221.62Z" fill="#426372"/>
<path d="M236.201 212.69L227.921 217.69L225.711 214.48L236.711 207.6H240.771V238.46H247.841V242.18H227.731V238.46H236.211V212.69H236.201Z" fill="#426372"/>
<path d="M305.111 212.29L307.321 215.75L289.761 226.49L307.321 237.27L304.911 240.64L285.781 228.7V224.24L305.111 212.29Z" fill="#426372"/>
<path d="M332.888 242.19V226H320.338V242.2H315.578V207.63H320.338V222.08H332.878V207.63H337.638V242.2L332.888 242.19Z" fill="#426372"/>
<path d="M358.999 211.64V242.2H354.239V211.64H343.559V207.64H369.849L369.349 211.64H358.999Z" fill="#426372"/>
<path d="M395.868 242.19L394.868 224.48C394.618 219.61 394.618 214 394.668 212.89H394.508L388.998 236H384.428L378.708 212.87H378.508C378.508 214.02 378.608 220 378.408 224.46L377.558 242.17H373.148L375.148 207.6H381.468L386.788 230.68H386.988L392.058 207.6H398.428L400.428 242.17L395.868 242.19Z" fill="#426372"/>
<path d="M408.391 242.19V207.63H413.151V238H428.851L428.301 242.16L408.391 242.19Z" fill="#426372"/>
<path d="M457.749 224.23V228.69L438.629 240.63L436.219 237.26L453.779 226.48L436.219 215.74L438.429 212.28L457.749 224.23Z" fill="#426372"/>
<path d="M194.828 285.06C194.828 273.62 198.748 267.2 206.268 267.2C213.788 267.2 217.708 273.62 217.708 285.06C217.708 296.5 213.788 303 206.268 303C198.748 303 194.828 296.54 194.828 285.06ZM212.948 285.06C212.948 274.97 210.498 270.86 206.278 270.86C202.058 270.86 199.608 274.97 199.608 285.06C199.608 295.15 202.118 299.31 206.278 299.31C210.438 299.31 212.948 295.19 212.948 285.06ZM206.268 281.8C206.921 281.794 207.562 281.983 208.107 282.342C208.653 282.701 209.079 283.215 209.332 283.817C209.585 284.419 209.652 285.083 209.526 285.724C209.4 286.365 209.086 286.954 208.624 287.416C208.162 287.878 207.573 288.192 206.933 288.318C206.292 288.444 205.628 288.376 205.025 288.124C204.423 287.871 203.909 287.445 203.55 286.899C203.191 286.353 203.002 285.713 203.008 285.06C203.004 284.63 203.086 284.204 203.248 283.806C203.41 283.408 203.65 283.047 203.953 282.742C204.257 282.438 204.618 282.197 205.015 282.034C205.412 281.87 205.838 281.787 206.268 281.79V281.8Z" fill="#426372"/>
<path d="M230.89 298.5H246.59L246.04 302.36H225.47V298.7C237.41 286.86 241.08 282.09 241.08 276.87C241.129 276.089 241.011 275.306 240.732 274.574C240.454 273.842 240.022 273.179 239.466 272.628C238.911 272.076 238.243 271.65 237.509 271.378C236.775 271.106 235.991 270.994 235.21 271.05C232.35 271.05 230.39 272.11 228.28 274.76L225.07 272.5C227.78 269.14 231.19 267.18 235.46 267.18C241.78 267.18 245.85 271.18 245.85 276.72C245.84 282.75 241.07 288.77 230.89 298.5Z" fill="#426372"/>
<path d="M305.109 272.46L307.319 275.92L289.759 286.66L307.319 297.44L304.909 300.81L285.789 288.87V284.4L305.109 272.46Z" fill="#426372"/>
<path d="M325.71 302.37H316.18V267.8H325C331.17 267.8 337.35 269.8 337.35 276.53C337.386 278.272 336.803 279.97 335.704 281.321C334.605 282.673 333.062 283.59 331.35 283.91V284.11C334.81 284.76 338.88 286.77 338.88 292.49C338.8 300.06 332.18 302.37 325.71 302.37ZM325.81 271.56H320.94V282.39H326.21C330.21 282.39 332.44 280.73 332.44 276.82C332.44 272.91 329.93 271.56 325.81 271.56ZM326.56 286.21H320.94V298.51H326.36C329.73 298.51 333.79 297.51 333.79 292.59C333.79 287.67 330.53 286.21 326.56 286.21Z" fill="#426372"/>
<path d="M356.699 303C348.219 303 343.859 295.93 343.859 285.19C343.859 274.66 348.219 267.19 356.699 267.19C365.179 267.19 369.539 274.37 369.539 285.1C369.549 295.64 365.169 303 356.699 303ZM356.699 271.14C351.079 271.14 348.819 276.06 348.819 285.14C348.819 294.22 351.229 299.04 356.699 299.04C362.319 299.04 364.569 294.22 364.569 285.04C364.569 275.86 362.319 271.1 356.699 271.1V271.14Z" fill="#426372"/>
<path d="M383.818 302.37H375.738V267.8H383.268C391.448 267.8 399.568 270.56 399.568 284.91C399.568 299.26 391.148 302.37 383.818 302.37ZM384.328 271.62H380.518V298.62H384.378C389.298 298.62 394.508 296.11 394.508 284.93C394.508 273.17 388.998 271.61 384.328 271.61V271.62Z" fill="#426372"/>
<path d="M419.28 289.07V302.37H414.46V289.12L402.82 267.79H408.09L416.93 284.69H417.09L425.97 267.79H430.97L419.28 289.07Z" fill="#426372"/>
<path d="M457.749 284.4V288.86L438.629 300.8L436.219 297.43L453.779 286.65L436.219 275.91L438.429 272.45L457.749 284.4Z" fill="#426372"/>
<path d="M194.828 345.23C194.828 333.79 198.748 327.37 206.268 327.37C213.788 327.37 217.708 333.79 217.708 345.23C217.708 356.67 213.788 363.14 206.268 363.14C198.748 363.14 194.828 356.72 194.828 345.23ZM212.948 345.23C212.948 335.14 210.498 331.03 206.278 331.03C202.058 331.03 199.608 335.14 199.608 345.23C199.608 355.32 202.118 359.48 206.278 359.48C210.438 359.48 212.948 355.36 212.948 345.23ZM206.268 342C206.921 341.994 207.562 342.183 208.107 342.542C208.653 342.901 209.079 343.415 209.332 344.017C209.585 344.62 209.652 345.284 209.526 345.924C209.4 346.565 209.086 347.154 208.624 347.616C208.162 348.078 207.573 348.392 206.933 348.518C206.292 348.644 205.628 348.577 205.025 348.324C204.423 348.071 203.909 347.645 203.55 347.099C203.191 346.554 203.002 345.913 203.008 345.26C203.005 344.831 203.088 344.406 203.251 344.009C203.414 343.613 203.654 343.252 203.957 342.949C204.26 342.646 204.621 342.406 205.017 342.243C205.414 342.08 205.839 341.997 206.268 342Z" fill="#426372"/>
<path d="M234.999 363.14C232.97 363.202 230.953 362.817 229.09 362.011C227.227 361.206 225.564 360 224.219 358.48L227.219 355.97C228.165 357.058 229.337 357.926 230.653 358.515C231.969 359.104 233.397 359.399 234.839 359.38C239.499 359.38 242.319 356.77 242.319 352.55C242.319 347.73 239.319 346.13 235.319 346.13H232.659L233.209 342.57H234.999C238.309 342.57 241.419 340.72 241.419 336.7C241.419 333.03 238.609 331.02 235.049 331.02C232.049 331.02 230.049 332.08 227.779 334.18L225.269 331.42C227.934 328.797 231.529 327.334 235.269 327.35C241.889 327.35 246.009 331.35 246.009 336.03C246.012 337.919 245.358 339.75 244.159 341.209C242.961 342.669 241.292 343.666 239.439 344.03V344.23C241.565 344.331 243.566 345.269 245.004 346.839C246.443 348.408 247.203 350.483 247.119 352.61C247.139 358.57 242.269 363.14 234.999 363.14Z" fill="#426372"/>
<path d="M305.111 332.63L307.321 336.09L289.761 346.83L307.321 357.61L304.901 361L285.781 349V344.54L305.111 332.63Z" fill="#426372"/>
<path d="M332.888 362.54V346.34H320.338V362.54H315.578V328H320.338V342.45H332.878V328H337.638V362.57H332.878L332.888 362.54Z" fill="#426372"/>
<path d="M352 331.77V343.06H364.74V346.87H352V358.76H367.61V362.52H347.27V328H367.27L366.72 331.81L352 331.77Z" fill="#426372"/>
<path d="M393.308 353.86H379.998L377.338 362.54H372.578L383.768 328H389.768L400.998 362.54H395.998L393.308 353.86ZM381.168 350H392.168L386.798 332.29H386.598L381.168 350Z" fill="#426372"/>
<path d="M413.908 362.54H405.828V328H413.358C421.538 328 429.658 330.76 429.658 345.11C429.658 359.46 421.228 362.54 413.908 362.54ZM414.408 331.78H410.598V358.78H414.458C419.378 358.78 424.588 356.27 424.588 345.09C424.598 333.34 419.128 331.77 414.408 331.77V331.78Z" fill="#426372"/>
<path d="M442.291 331.77V343.06H455.001V346.87H442.291V358.76H457.901V362.52H437.531V328H457.531L456.981 331.81L442.291 331.77Z" fill="#426372"/>
<path d="M480.808 347.29L490.938 362.54H485.268L475.998 347.89H471.588V362.54H466.828V328H475.908C484.538 328 489.048 331.3 489.048 337.78C489.078 342.92 485.468 346.08 480.808 347.29ZM476.388 331.68H471.628V344.22H476.448C481.268 344.22 484.018 342.42 484.018 337.75C483.998 333.43 481.548 331.68 476.378 331.68H476.388Z" fill="#426372"/>
<path d="M517.921 344.58V349L498.801 361L496.391 357.63L513.951 346.85L496.391 336.11L498.601 332.65L517.921 344.58Z" fill="#426372"/>
<path d="M194.828 405.4C194.828 393.96 198.748 387.54 206.268 387.54C213.788 387.54 217.698 394 217.698 405.4C217.698 416.8 213.778 423.31 206.258 423.31C198.738 423.31 194.828 416.89 194.828 405.4ZM212.948 405.4C212.948 395.31 210.498 391.2 206.278 391.2C202.058 391.2 199.608 395.31 199.608 405.4C199.608 415.49 202.118 419.65 206.278 419.65C210.438 419.65 212.948 415.53 212.948 405.4ZM206.268 402.14C206.921 402.136 207.56 402.326 208.104 402.687C208.649 403.047 209.074 403.562 209.325 404.164C209.576 404.767 209.642 405.43 209.515 406.071C209.388 406.711 209.073 407.299 208.611 407.76C208.148 408.221 207.559 408.534 206.919 408.659C206.278 408.784 205.615 408.716 205.013 408.463C204.411 408.21 203.898 407.783 203.539 407.238C203.181 406.693 202.992 406.053 202.998 405.4C202.995 404.97 203.078 404.544 203.242 404.147C203.405 403.75 203.646 403.389 203.951 403.085C204.255 402.782 204.616 402.542 205.014 402.38C205.412 402.218 205.838 402.136 206.268 402.14Z" fill="#426372"/>
<path d="M243.38 414.43V422.71H238.92V414.43H224.77V411.17L234.9 387.53L238.76 389.14L229.62 410.77H238.9L239.36 401.77H243.36V410.77H247.72V414.44L243.38 414.43Z" fill="#426372"/>
<path d="M305.109 392.8L307.319 396.26L289.759 407L307.319 417.78L304.909 421.15L285.789 409.21V404.75L305.109 392.8Z" fill="#426372"/>
<path d="M317.79 427.93L314.07 426.27L335.49 382.07L339.16 383.83L317.79 427.93Z" fill="#426372"/>
<path d="M363 422.71V406.51H350.42V422.71H345.66V388.14H350.42V402.59H363V388.14H367.76V422.71H363Z" fill="#426372"/>
<path d="M382.119 392V403.29H394.859V407.1H382.119V418.99H397.729V422.75H377.359V388.14H397.359L396.809 391.95L382.119 392Z" fill="#426372"/>
<path d="M423.392 414H410.092L407.432 422.68H402.672L413.862 388.11H419.862L431.052 422.68H426.052L423.392 414ZM411.252 410.14H422.252L416.882 392.43H416.672L411.252 410.14Z" fill="#426372"/>
<path d="M444.002 422.71H435.922V388.14H443.452C451.632 388.14 459.752 390.9 459.752 405.25C459.752 419.6 451.332 422.71 444.002 422.71ZM444.502 392H440.692V419H444.552C449.472 419 454.682 416.49 454.682 405.31C454.682 393.51 449.212 392 444.502 392Z" fill="#426372"/>
<path d="M472.369 392V403.29H485.109V407.1H472.369V418.99H487.999V422.75H467.609V388.14H487.609L486.999 392H472.369Z" fill="#426372"/>
<path d="M510.892 407.45L521.002 422.71H515.332L506.102 408.06H501.682V422.71H496.922V388.14H506.002C514.632 388.14 519.142 391.44 519.142 397.92C519.172 403.09 515.562 406.25 510.892 407.45ZM506.482 391.85H501.722V404.4H506.542C511.362 404.4 514.112 402.6 514.112 397.93C514.102 393.61 511.642 391.85 506.472 391.85H506.482Z" fill="#426372"/>
<path d="M548.001 404.75V409.21L528.881 421.15L526.471 417.78L544.001 407L526.441 396.26L528.651 392.8L548.001 404.75Z" fill="#426372"/>
</svg>
