<svg width="136" height="82" viewBox="0 0 136 82" fill="none" xmlns="http://www.w3.org/2000/svg">
<path d="M42.8719 25.9751L2.13789 2.95152L11.5799 50.1617L22.4666 31.8261L22.7834 31.2927L23.3832 31.1339L42.8719 25.9751Z" fill="#2B2B2C" stroke="white" stroke-width="3.03505"/>
<mask id="path-2-inside-1_478_2" fill="white">
<rect width="106" height="39" rx="3" transform="matrix(-1 0 0 1 136 43)"/>
</mask>
<rect width="106" height="39" rx="3" transform="matrix(-1 0 0 1 136 43)" fill="#076943"/>
<path d="M56.2017 69H54.4678V55.1H62.9061V56.6605H56.2017V61.4383H62.3571V62.9795H56.2017V69ZM64.7171 69V58.982H66.3932V69H64.7171ZM65.5551 57.2962C65.2726 57.2962 65.0285 57.1935 64.823 56.988C64.6175 56.7825 64.5148 56.5385 64.5148 56.2559C64.5148 55.9669 64.6175 55.7229 64.823 55.5238C65.0285 55.3183 65.2726 55.2156 65.5551 55.2156C65.8441 55.2156 66.0913 55.3183 66.2968 55.5238C66.5023 55.7229 66.6051 55.9669 66.6051 56.2559C66.6051 56.5385 66.5023 56.7825 66.2968 56.988C66.0913 57.1935 65.8441 57.2962 65.5551 57.2962ZM72.7315 67.6033C73.6049 67.6033 74.3081 67.2693 74.8411 66.6014C75.3741 65.9336 75.6406 65.0506 75.6406 63.9524C75.6406 62.8479 75.3741 61.9617 74.8411 61.2938C74.3081 60.6195 73.6049 60.2824 72.7315 60.2824C71.8646 60.2824 71.171 60.6163 70.6508 61.2842C70.1371 61.9456 69.8802 62.8351 69.8802 63.9524C69.8802 65.0698 70.1371 65.9593 70.6508 66.6207C71.171 67.2757 71.8646 67.6033 72.7315 67.6033ZM72.7893 72.776C71.6912 72.776 70.7472 72.4967 69.9573 71.938C69.1674 71.3857 68.7018 70.6825 68.5605 69.8284H70.2848C70.4518 70.2908 70.7664 70.66 71.2288 70.9362C71.6912 71.2123 72.2338 71.3504 72.8567 71.3504C73.7173 71.3504 74.3948 71.1224 74.8892 70.6665C75.3901 70.2105 75.6406 69.6069 75.6406 68.8555V67.2757H75.6021C75.2874 67.828 74.8475 68.2679 74.2824 68.5954C73.7173 68.9165 73.0879 69.0771 72.3944 69.0771C71.1164 69.0771 70.0921 68.6115 69.3215 67.6803C68.5509 66.7492 68.1656 65.5065 68.1656 63.9524C68.1656 62.3855 68.5509 61.1365 69.3215 60.2053C70.0986 59.2741 71.1357 58.8086 72.4329 58.8086C73.1393 58.8086 73.7751 58.9723 74.3402 59.2998C74.9053 59.6274 75.3548 60.0833 75.6888 60.6677H75.7177V58.982H77.3167V68.7977C77.3167 69.9986 76.9057 70.9619 76.0837 71.6875C75.2617 72.4132 74.1636 72.776 72.7893 72.776ZM91.4864 63.2493C91.4864 65.1309 90.9663 66.5982 89.9259 67.6514C88.892 68.7046 87.4471 69.2312 85.5912 69.2312C83.6518 69.2312 82.1042 68.5762 80.9482 67.2661C79.7987 65.9496 79.224 64.1868 79.224 61.9777C79.224 59.8072 79.7987 58.0797 80.9482 56.7953C82.0977 55.511 83.6454 54.8688 85.5912 54.8688C87.0939 54.8688 88.3719 55.283 89.425 56.1114C90.4846 56.9334 91.1429 58.0347 91.3997 59.4154H89.5792C89.2902 58.4778 88.7957 57.7522 88.0957 57.2384C87.4022 56.7247 86.5673 56.4678 85.5912 56.4678C84.1591 56.4678 83.0353 56.9559 82.2197 57.932C81.4106 58.9017 81.006 60.2471 81.006 61.9681C81.006 63.7148 81.417 65.0955 82.239 66.1102C83.061 67.1248 84.1784 67.6322 85.5912 67.6322C86.8242 67.6322 87.826 67.2693 88.5966 66.5437C89.3672 65.8116 89.7525 64.8643 89.7525 63.702V63.4515H85.832V61.9296H91.4864V63.2493ZM97.4684 60.2631C96.6913 60.2631 96.0459 60.5328 95.5322 61.0723C95.0249 61.6053 94.7455 62.2924 94.6941 63.1337H100.137C100.117 62.286 99.8637 61.5956 99.3756 61.0626C98.8876 60.5296 98.2518 60.2631 97.4684 60.2631ZM100.098 66.1294H101.745C101.598 67.0157 101.135 67.7445 100.358 68.3161C99.5876 68.8876 98.6596 69.1734 97.5743 69.1734C96.1423 69.1734 95.0152 68.711 94.1932 67.7863C93.3712 66.8615 92.9602 65.6093 92.9602 64.0295C92.9602 62.4626 93.3712 61.2007 94.1932 60.2438C95.0217 59.287 96.123 58.8086 97.4973 58.8086C98.8458 58.8086 99.9119 59.2613 100.695 60.1668C101.479 61.0723 101.871 62.286 101.871 63.808V64.4437H94.6845V64.54C94.6845 65.5033 94.9478 66.2739 95.4744 66.8519C96.001 67.4299 96.7138 67.7188 97.6129 67.7188C98.2422 67.7188 98.7784 67.5744 99.2215 67.2854C99.6646 66.9964 99.9568 66.6111 100.098 66.1294ZM103.566 69V58.982H105.146V60.581H105.184C105.473 60.0223 105.887 59.5888 106.427 59.2806C106.966 58.9659 107.612 58.8086 108.363 58.8086C109.455 58.8086 110.306 59.1393 110.916 59.8007C111.526 60.4558 111.831 61.3548 111.831 62.4979V69H110.155V62.7965C110.155 61.9809 109.962 61.3612 109.577 60.9374C109.191 60.5071 108.617 60.292 107.852 60.292C107.063 60.292 106.43 60.5489 105.955 61.0626C105.48 61.5764 105.242 62.2571 105.242 63.1048V69H103.566Z" fill="white"/>
<rect width="106" height="39" rx="3" transform="matrix(-1 0 0 1 136 43)" stroke="white" stroke-width="6.0701" mask="url(#path-2-inside-1_478_2)"/>
</svg>
